<svg width="182" height="64" viewBox="0 0 182 64" fill="none" xmlns="http://www.w3.org/2000/svg">
<path d="M48 15L60 27V60H24V48H48V15Z" fill="url(#paint0_linear)"/>
<path d="M12 45L0 33V0H33L45 12L11.9 11.9L12 45Z" fill="url(#paint1_linear)"/>
<path d="M36 24H24V36H36V24Z" fill="url(#paint2_linear)"/>
<path d="M72 29.5H70.6V27.1H77.7C80.6 27.1 82.6 29.1 82.6 32.1C82.6 35.1 80.6 37.2 77.7 37.2H74.9V42.5H72V29.5ZM77.2 34.8C78.8 34.8 79.7 33.8 79.7 32.1C79.7 30.5 78.8 29.5 77.2 29.5H74.9V34.8H77.2Z" fill="white"/>
<path d="M89.9 35.6H90.2V35.5C90.2 33.9 89.6 33.3 88.2 33.3C87.7 33.3 86.7 33.4 86.7 34V34.6H84.1V33.4C84.1 31.3 87 31.1 88.2 31.1C91.9 31.1 93 33 93 35.5V39.6C93 39.9 93.2 40.1 93.5 40.1H94.4V42.4H91.9C90.9 42.4 90.5 41.8 90.5 41.2C90.5 40.9 90.5 40.7 90.5 40.7C90.5 40.7 89.7 42.7 87.1 42.7C85.1 42.7 83.3 41.5 83.3 39.2C83.3 35.9 88.1 35.6 89.9 35.6ZM87.8 40.7C89.3 40.7 90.3 39.1 90.3 37.8V37.5H89.8C88.4 37.5 86.1 37.7 86.1 39.2C86.1 40 86.7 40.7 87.8 40.7Z" fill="white"/>
<path d="M96.5999 34.3C96.5999 34 96.3999 33.8 96.0999 33.8H95.2V31.4H97.7C98.7 31.4 99.2 31.8 99.2 32.7V33.4C99.2 33.8 99.2 34.1 99.2 34.1C99.7 32.5 101 31.2 102.7 31.2C102.9 31.2 103.2 31.2 103.2 31.2V33.9C103.2 33.9 102.9 33.9 102.5 33.9C101.3 33.9 99.9999 34.6 99.4999 36.2C99.2999 36.7 99.3 37.4 99.3 38V42.4H96.5999V34.3Z" fill="white"/>
<path d="M110.5 35.6H110.8V35.5C110.8 33.9 110.2 33.3 108.8 33.3C108.3 33.3 107.3 33.4 107.3 34V34.6H104.7V33.4C104.7 31.3 107.6 31.1 108.8 31.1C112.5 31.1 113.6 33 113.6 35.5V39.6C113.6 39.9 113.8 40.1 114.1 40.1H115V42.4H112.5C111.5 42.4 111.1 41.8 111.1 41.2C111.1 40.9 111.1 40.7 111.1 40.7C111.1 40.7 110.3 42.7 107.7 42.7C105.7 42.7 103.9 41.5 103.9 39.2C103.9 35.9 108.6 35.6 110.5 35.6ZM108.3 40.7C109.8 40.7 110.8 39.1 110.8 37.8V37.5H110.3C108.9 37.5 106.6 37.7 106.6 39.2C106.6 40 107.2 40.7 108.3 40.7Z" fill="white"/>
<path d="M121.1 31.2C123.5 31.2 124.3 32.6 124.3 32.6C124.3 32.6 124.3 32.3 124.3 31.9V29.9C124.3 29.6 124.1 29.4 123.8 29.4H122.9V27H125.5C126.5 27 127 27.5 127 28.5V39.7C127 40 127.2 40.2 127.5 40.2H128.3V42.5H125.8C124.8 42.5 124.4 42 124.4 41.4C124.4 41.2 124.4 41 124.4 41C124.4 41 123.5 42.8 120.9 42.8C117.9 42.8 116 40.4 116 37C116 33.5 118.1 31.2 121.1 31.2ZM124.4 37C124.4 35.3 123.5 33.6 121.7 33.6C120.2 33.6 118.9 34.8 118.9 37C118.9 39.1 120 40.5 121.6 40.5C123 40.5 124.4 39.5 124.4 37Z" fill="white"/>
<path d="M130.8 34.3C130.8 34 130.6 33.8 130.3 33.8H129.4V31.4H132C133 31.4 133.5 31.9 133.5 32.9V39.7C133.5 40 133.7 40.2 134 40.2H134.9V42.5H132.3C131.3 42.5 130.8 42.1 130.8 41V34.3ZM130.9 27.1H133.3V29.6H130.9V27.1Z" fill="white"/>
<path d="M141 31.2C143.6 31.2 144.4 32.8 144.4 32.8C144.4 32.8 144.4 32.7 144.4 32.5C144.4 32 144.7 31.5 145.6 31.5H148.2V33.9H147.4C147.1 33.9 146.9 34.1 146.9 34.3V41.9C146.9 45.7 143.9 47.1 141 47.1C139.6 47.1 138.1 46.7 137.1 46.1L137.9 43.9C137.9 43.9 139.3 44.6 141 44.6C142.7 44.6 144.1 43.9 144.1 41.9V41.4C144.1 41.1 144.1 40.8 144.1 40.8C143.4 41.7 142.5 42.2 141 42.2C137.8 42.2 136 39.6 136 36.6C136.1 33.7 137.8 31.2 141 31.2ZM144.2 36.8C144.2 34.3 142.9 33.6 141.4 33.6C139.7 33.6 138.8 34.8 138.8 36.7C138.8 38.6 139.8 40.1 141.6 40.1C143 40 144.2 39.3 144.2 36.8Z" fill="white"/>
<path d="M150.5 34.3C150.5 34 150.3 33.8 150 33.8H149.1V31.4H151.6C152.6 31.4 153.1 31.9 153.1 32.6V33C153.1 33.2 153.1 33.5 153.1 33.5C153.6 32.4 155 31.2 156.7 31.2C158.4 31.2 159.5 32 159.9 33.5C160.5 32.3 161.9 31.2 163.7 31.2C166 31.2 167.3 32.5 167.3 35.4V39.7C167.3 40 167.5 40.2 167.8 40.2H168.6V42.5H166C165 42.5 164.5 42.1 164.5 41V36C164.5 34.7 164.3 33.8 163 33.8C161.6 33.8 160.6 35 160.3 36.3C160.2 36.7 160.1 37.2 160.1 37.7V42.6H157.3V36C157.3 34.8 157.1 33.8 155.8 33.8C154.4 33.8 153.5 35 153.1 36.4C153 36.8 152.9 37.3 152.9 37.8V42.7H150.2V34.3H150.5Z" fill="white"/>
<path d="M176.6 35.6H176.9V35.5C176.9 33.9 176.3 33.3 174.9 33.3C174.4 33.3 173.4 33.4 173.4 34V34.6H170.8V33.4C170.8 31.3 173.7 31.1 174.9 31.1C178.6 31.1 179.7 33 179.7 35.5V39.6C179.7 39.9 179.9 40.1 180.2 40.1H181.1V42.4H178.6C177.6 42.4 177.2 41.8 177.2 41.2C177.2 40.9 177.2 40.7 177.2 40.7C177.2 40.7 176.4 42.7 173.8 42.7C171.8 42.7 170 41.5 170 39.2C170 35.9 174.8 35.6 176.6 35.6ZM174.4 40.7C175.9 40.7 176.9 39.1 176.9 37.8V37.5H176.4C175 37.5 172.7 37.7 172.7 39.2C172.8 40 173.3 40.7 174.4 40.7Z" fill="white"/>
<path d="M74.9 51C76.9 51 77.5 52.3 77.5 52.3C77.5 52.3 77.5 52 77.5 51.7V49.6C77.5 49.3 77.4 49.2 77.1 49.2H76.4V47.8H78C78.8 47.8 79.1 48.1 79.1 48.9V57.9C79.1 58.2 79.2 58.3 79.5 58.3H80.2V59.7H78.6C77.9 59.7 77.6 59.4 77.6 58.8C77.6 58.5 77.6 58.4 77.6 58.4C77.6 58.4 76.9 59.9 74.8 59.9C72.5 59.9 71 58.1 71 55.4C71.1 52.7 72.7 51 74.9 51ZM77.6 55.4C77.6 53.9 76.8 52.4 75.2 52.4C73.9 52.4 72.8 53.5 72.8 55.4C72.8 57.2 73.8 58.4 75.2 58.4C76.4 58.5 77.6 57.6 77.6 55.4Z" fill="white"/>
<path d="M82.2 53C82.2 52.7 82.1 52.6 81.8 52.6H81.1V51.2H82.7C83.5 51.2 83.8 51.5 83.8 52.3V58C83.8 58.3 83.9 58.4 84.2 58.4H84.9V59.8H83.3C82.5 59.8 82.2 59.5 82.2 58.7V53ZM82.2 47.8H83.7V49.5H82.2V47.8Z" fill="white"/>
<path d="M89.6 51C91.7 51 92.3 52.3 92.3 52.3C92.3 52.3 92.3 52.2 92.3 52C92.3 51.5 92.6 51.1 93.2 51.1H94.8V52.5H94.1C93.9 52.5 93.7 52.6 93.7 52.8V59.2C93.7 62 91.6 63.1 89.4 63.1C88.4 63.1 87.3 62.8 86.5 62.4L87.1 61.1C87.1 61.1 88.1 61.7 89.4 61.7C90.9 61.7 92.1 61 92.1 59.3V58.7C92.1 58.4 92.1 58.2 92.1 58.2C91.6 59 90.8 59.5 89.6 59.5C87.2 59.5 85.8 57.6 85.8 55.1C85.9 52.8 87.2 51 89.6 51ZM92.3 55.3C92.3 53.1 91.2 52.4 89.9 52.4C88.4 52.4 87.6 53.5 87.6 55.2C87.6 57 88.5 58.2 90.1 58.2C91.2 58.2 92.3 57.5 92.3 55.3Z" fill="white"/>
<path d="M96.8 53C96.8 52.7 96.6999 52.6 96.3999 52.6H95.7V51.2H97.3C98.1 51.2 98.3999 51.5 98.3999 52.3V58C98.3999 58.3 98.5 58.4 98.8 58.4H99.4999V59.8H97.8999C97.0999 59.8 96.8 59.5 96.8 58.7V53ZM96.8 47.8H98.3V49.5H96.8V47.8Z" fill="white"/>
<path d="M101.4 52.5H100.3V51.2H101.4V48.9H103V51.2H105V52.5H103V56.4C103 58.1 104.2 58.3 104.8 58.3C105 58.3 105.2 58.3 105.2 58.3V59.7C105.2 59.7 105 59.7 104.6 59.7C103.5 59.7 101.4 59.4 101.4 56.5V52.5Z" fill="white"/>
<path d="M111.5 54.4H111.9V54.3C111.9 52.8 111.3 52.3 110 52.3C109.6 52.3 108.6 52.4 108.6 53V53.5H107.1V52.7C107.1 51.3 109.2 51.1 110 51.1C112.8 51.1 113.5 52.5 113.5 54.4V58C113.5 58.3 113.6 58.4 113.9 58.4H114.6V59.8H113.1C112.3 59.8 112 59.4 112 58.8C112 58.5 112 58.3 112 58.3C112 58.3 111.3 60 109.3 60C107.8 60 106.4 59.1 106.4 57.4C106.4 54.6 110.1 54.4 111.5 54.4ZM109.6 58.6C111 58.6 111.9 57.2 111.9 55.9V55.6H111.5C110.3 55.6 108.1 55.7 108.1 57.2C108 57.9 108.5 58.6 109.6 58.6Z" fill="white"/>
<path d="M116.3 49.6C116.3 49.3 116.2 49.2 115.9 49.2H115.2V47.8H116.8C117.6 47.8 117.9 48.1 117.9 48.9V57.9C117.9 58.2 118 58.3 118.3 58.3H119V59.7H117.4C116.6 59.7 116.3 59.4 116.3 58.6V49.6Z" fill="white"/>
<path d="M129.7 54.4H130.1V54.3C130.1 52.8 129.5 52.3 128.2 52.3C127.8 52.3 126.8 52.4 126.8 53V53.5H125.3V52.7C125.3 51.3 127.4 51.1 128.2 51.1C131 51.1 131.7 52.5 131.7 54.4V58C131.7 58.3 131.8 58.4 132.1 58.4H132.8V59.8H131.3C130.5 59.8 130.2 59.4 130.2 58.8C130.2 58.5 130.2 58.3 130.2 58.3C130.2 58.3 129.5 60 127.5 60C126 60 124.6 59.1 124.6 57.4C124.5 54.6 128.2 54.4 129.7 54.4ZM127.8 58.6C129.2 58.6 130.1 57.2 130.1 55.9V55.6H129.7C128.5 55.6 126.3 55.7 126.3 57.2C126.2 57.9 126.7 58.6 127.8 58.6Z" fill="white"/>
<path d="M137.4 51C139.5 51 140.1 52.3 140.1 52.3C140.1 52.3 140.1 52.2 140.1 52C140.1 51.5 140.4 51.1 141 51.1H142.6V52.5H141.9C141.7 52.5 141.5 52.6 141.5 52.8V59.2C141.5 62 139.4 63.1 137.2 63.1C136.2 63.1 135.1 62.8 134.3 62.4L134.9 61.1C134.9 61.1 135.9 61.7 137.2 61.7C138.7 61.7 139.9 61 139.9 59.3V58.7C139.9 58.4 139.9 58.2 139.9 58.2C139.4 59 138.6 59.5 137.4 59.5C135 59.5 133.6 57.6 133.6 55.1C133.7 52.8 135.1 51 137.4 51ZM140.1 55.3C140.1 53.1 139 52.4 137.7 52.4C136.2 52.4 135.4 53.5 135.4 55.2C135.4 57 136.3 58.2 137.9 58.2C139 58.2 140.1 57.5 140.1 55.3Z" fill="white"/>
<path d="M148 51C150.4 51 151.7 52.8 151.7 55C151.7 55.2 151.6 55.7 151.6 55.7H145.4C145.5 57.5 146.8 58.5 148.3 58.5C149.8 58.5 150.8 57.5 150.8 57.5L151.5 58.7C151.5 58.7 150.2 59.9 148.2 59.9C145.5 59.9 143.7 58 143.7 55.4C143.7 52.7 145.5 51 148 51ZM149.9 54.5C149.8 53.1 149 52.3 147.9 52.3C146.7 52.3 145.6 53.1 145.4 54.5H149.9Z" fill="white"/>
<path d="M153.8 53C153.8 52.7 153.7 52.6 153.4 52.6H152.7V51.2H154.3C155 51.2 155.4 51.5 155.4 52.1V52.4C155.4 52.7 155.4 52.9 155.4 52.9C155.7 52.2 156.7 50.9 158.6 50.9C160.6 50.9 161.5 52 161.5 54.2V57.9C161.5 58.2 161.6 58.3 161.9 58.3H162.6V59.7H161C160.2 59.7 159.9 59.4 159.9 58.6V54.6C159.9 53.4 159.7 52.5 158.3 52.5C157 52.5 155.9 53.4 155.6 54.6C155.5 54.9 155.4 55.3 155.4 55.7V59.7H153.8V53Z" fill="white"/>
<path d="M168.1 51C169.1 51 171.2 51.4 171.2 52.9V53.8H169.7V53.3C169.7 52.7 168.7 52.4 168.1 52.4C166.4 52.4 165.2 53.6 165.2 55.4C165.2 57.3 166.6 58.4 168.2 58.4C169.8 58.4 170.8 57.2 170.8 57.2L171.5 58.4C171.5 58.4 170.3 59.9 168 59.9C165.3 59.9 163.5 58 163.5 55.4C163.5 52.9 165.3 51 168.1 51Z" fill="white"/>
<path d="M173.8 61.8C174.5 61.8 175 61.3 175.3 60.6L175.7 59.7L172.8 53C172.7 52.7 172.5 52.7 172.3 52.7H172.1V51.3H173.1C173.8 51.3 174 51.5 174.3 52.2L176.2 57C176.4 57.4 176.5 58 176.5 58C176.5 58 176.6 57.4 176.8 57L178.6 52.2C178.9 51.5 179.2 51.3 179.8 51.3H180.8V52.7H180.6C180.3 52.7 180.2 52.8 180.1 53L176.7 61.3C176.2 62.6 175.2 63.3 174 63.3C172.7 63.3 172 62.5 172 62.5L172.7 61.3C172.5 61.2 173.1 61.8 173.8 61.8Z" fill="white"/>
<defs>
<linearGradient id="paint0_linear" x1="20.602" y1="55.5713" x2="62.2117" y2="32.9832" gradientUnits="userSpaceOnUse">
<stop stop-color="#2C3E91"/>
<stop offset="0.6007" stop-color="#7C3899"/>
<stop offset="1" stop-color="#D47CF6"/>
</linearGradient>
<linearGradient id="paint1_linear" x1="-6.2408" y1="28.1493" x2="42.5116" y2="5.5567" gradientUnits="userSpaceOnUse">
<stop stop-color="#2C3E91"/>
<stop offset="0.6007" stop-color="#7C3899"/>
<stop offset="1" stop-color="#D47CF6"/>
</linearGradient>
<linearGradient id="paint2_linear" x1="11.3766" y1="50.1343" x2="46.2897" y2="12.2812" gradientUnits="userSpaceOnUse">
<stop offset="0.2132" stop-color="#2C3E91"/>
<stop offset="0.6007" stop-color="#7C3899"/>
<stop offset="1" stop-color="#D47CF6"/>
</linearGradient>
</defs>
</svg>
