<svg width="324" height="124" viewBox="0 0 324 124" fill="none" xmlns="http://www.w3.org/2000/svg">
<path d="M47.1914 61.0625L47.1914 35.3521L82.2847 0.000208274L117.378 35.352L117.378 61.0625L82.2847 25.4964L47.1914 61.0625Z" fill="url(#paint0_linear)"/>
<path d="M208.62 61.0625L208.621 35.3521L243.714 0.000208274L278.807 35.352L278.807 61.0625L243.714 25.4964L208.62 61.0625Z" fill="url(#paint1_linear)"/>
<path d="M163.354 123.736C183.778 123.736 190.411 106.47 190.411 84.9929C190.411 63.5158 183.778 46.4604 163.354 46.4604C142.93 46.4604 136.192 63.5158 136.192 84.9929C136.192 106.47 142.93 123.736 163.354 123.736ZM163.354 111.313C153.142 111.313 150.194 99.732 150.194 84.9929C150.194 70.4643 153.142 58.9887 163.354 58.9887C173.566 58.9887 176.514 70.4643 176.514 84.9929C176.514 99.732 173.566 111.313 163.354 111.313Z" fill="white"/>
<path d="M299.532 112.473H310.797C318.588 99.7345 323.325 83.6267 323.325 66.3608C323.325 51.2006 318.798 37.0931 310.797 24.4595H299.532C307.218 37.4089 311.429 51.6217 311.429 66.4661C311.429 82.1528 307.323 97.9448 299.532 112.473Z" fill="white"/>
<path d="M13.136 112.473H24.4009C16.6102 97.9448 12.5043 82.1528 12.5043 66.4661C12.5043 51.6217 16.7155 37.4089 24.4009 24.4595H13.136C5.1347 37.0931 0.607666 51.2006 0.607666 66.3608C0.607666 83.6267 5.34526 99.7345 13.136 112.473Z" fill="white"/>
<defs>
<linearGradient id="paint0_linear" x1="81.0371" y1="6.28417" x2="51.6265" y2="72.7353" gradientUnits="userSpaceOnUse">
<stop stop-color="#3B3D93"/>
<stop offset="1" stop-color="#CD76EF"/>
</linearGradient>
<linearGradient id="paint1_linear" x1="242.466" y1="6.28417" x2="213.056" y2="72.7353" gradientUnits="userSpaceOnUse">
<stop stop-color="#3B3D93"/>
<stop offset="1" stop-color="#CD76EF"/>
</linearGradient>
</defs>
</svg>
