<svg width="147" height="124" viewBox="0 0 147 124" fill="none" xmlns="http://www.w3.org/2000/svg">
<path d="M14.36 123.398V118.698C14.36 114.398 11.76 111.558 7.28 111.558C2.82 111.558 0.240002 114.398 0.240002 118.698L0.240002 123.398H14.36ZM12.64 121.418H1.96L1.96 118.838C1.96 115.698 3.82 113.598 7.28 113.598C10.78 113.598 12.64 115.678 12.64 118.838L12.64 121.418Z" fill="url(#paint0_linear)"/>
<path d="M14.36 100.652V98.6723H0.240001L0.240001 100.652H14.36Z" fill="url(#paint1_linear)"/>
<path d="M7.28 87.7897C11.6 87.7897 14.6 84.6497 14.6 80.8497C14.6 79.1097 13.88 77.4697 12.88 76.5097V76.4697C12.88 76.4697 13.18 76.4897 13.48 76.4897H14.36V74.7497H7.26L7.26 78.8497H8.98V76.5697H11.02C12.08 77.5897 12.78 79.0497 12.78 80.5697C12.78 83.5097 10.5 85.7497 7.24 85.7497C4.24 85.7497 1.8 83.7497 1.8 80.4497C1.8 79.0097 2.38 77.3897 3.18 76.4497L1.72 75.4497C0.52 76.8697 -7.95547e-08 78.7697 0 80.5897C1.80091e-07 84.7097 3.2 87.7897 7.28 87.7897Z" fill="url(#paint2_linear)"/>
<path d="M14.36 63.6953V61.7153H0.24L0.24 63.6953H14.36Z" fill="url(#paint3_linear)"/>
<path d="M14.36 46.6727V44.7127L1.96 44.7127L1.96 39.8527H0.239999L0.239999 51.5327H1.96L1.96 46.6727H14.36Z" fill="url(#paint4_linear)"/>
<path d="M14.36 32.3998V30.3798L10.3 28.9598V23.6398L14.36 22.2198V20.1798L0.239998 25.2398L0.239998 27.3398L14.36 32.3998ZM8.66 28.4398L4.2 26.8598C3.46 26.6198 2.18 26.3198 2.18 26.3198V26.2798C2.18 26.2798 3.46 25.9598 4.2 25.7198L8.66 24.1598V28.4398Z" fill="url(#paint5_linear)"/>
<path d="M14.36 10.0273V1.70734H12.64V8.04734L0.239997 8.04734L0.239997 10.0273H14.36Z" fill="url(#paint6_linear)"/>
<path d="M26.66 14.36H28.68L30.1 10.3H35.42L36.84 14.36H38.88L33.82 0.24H31.72L26.66 14.36ZM30.62 8.66L32.2 4.2C32.44 3.46 32.74 2.18 32.74 2.18H32.78C32.78 2.18 33.1 3.46 33.34 4.2L34.9 8.66H30.62Z" fill="url(#paint7_linear)"/>
<path d="M47.8405 7.28C47.8405 11.6 50.9805 14.6 54.7805 14.6C56.5205 14.6 58.1605 13.88 59.1205 12.88H59.1605C59.1605 12.88 59.1405 13.18 59.1405 13.48V14.36H60.8805V7.26H56.7805V8.98H59.0605V11.02C58.0405 12.08 56.5805 12.78 55.0605 12.78C52.1205 12.78 49.8805 10.5 49.8805 7.24C49.8805 4.24 51.8805 1.8 55.1805 1.8C56.6205 1.8 58.2405 2.38 59.1805 3.18L60.1805 1.72C58.7605 0.52 56.8605 0 55.0405 0C50.9205 0 47.8405 3.2 47.8405 7.28Z" fill="url(#paint8_linear)"/>
<path d="M71.9348 14.36H80.4949V12.64H73.9148V8.1H78.9748V6.38H73.9148V1.96H80.1548V0.24H71.9348V14.36Z" fill="url(#paint9_linear)"/>
<path d="M91.2239 14.36L93.2039 14.36V5.2C93.2039 4.4 93.0839 3.14 93.0839 3.14H93.1239C93.1239 3.14 93.7839 4.42 94.2839 5.2L100.584 14.36H102.524V0.24H100.564V9.4C100.564 10.2 100.684 11.46 100.684 11.46H100.644C100.644 11.46 99.9839 10.18 99.4839 9.4L93.1839 0.24H91.2239V14.36Z" fill="url(#paint10_linear)"/>
<path d="M113.403 7.22C113.403 11.36 116.263 14.6 120.643 14.6C123.143 14.6 124.903 13.56 126.103 12.36L125.043 10.94C123.903 12.08 122.283 12.78 120.703 12.78C117.423 12.78 115.443 10.2 115.443 7.2C115.443 4.22 117.383 1.8 120.663 1.8C122.123 1.8 123.703 2.42 124.743 3.34L125.743 1.86C124.383 0.56 122.403 0 120.583 0C116.383 0 113.403 3.12 113.403 7.22Z" fill="url(#paint11_linear)"/>
<path d="M139.679 14.36H141.639V8.38L146.379 0.24H144.139L141.539 4.88C141.099 5.7 140.679 6.66 140.679 6.66H140.639C140.639 6.66 140.199 5.7 139.779 4.88L137.179 0.24H134.939L139.679 8.38V14.36Z" fill="url(#paint12_linear)"/>
<defs>
<linearGradient id="paint0_linear" x1="7.63242" y1="9.65128" x2="49.5221" y2="137.223" gradientUnits="userSpaceOnUse">
<stop stop-color="#3B3D93"/>
<stop offset="1" stop-color="#CD76EF"/>
</linearGradient>
<linearGradient id="paint1_linear" x1="7.63242" y1="9.65128" x2="49.5221" y2="137.223" gradientUnits="userSpaceOnUse">
<stop stop-color="#3B3D93"/>
<stop offset="1" stop-color="#CD76EF"/>
</linearGradient>
<linearGradient id="paint2_linear" x1="7.63242" y1="9.65128" x2="49.5221" y2="137.223" gradientUnits="userSpaceOnUse">
<stop stop-color="#3B3D93"/>
<stop offset="1" stop-color="#CD76EF"/>
</linearGradient>
<linearGradient id="paint3_linear" x1="7.63242" y1="9.65128" x2="49.5221" y2="137.223" gradientUnits="userSpaceOnUse">
<stop stop-color="#3B3D93"/>
<stop offset="1" stop-color="#CD76EF"/>
</linearGradient>
<linearGradient id="paint4_linear" x1="7.63242" y1="9.65128" x2="49.5221" y2="137.223" gradientUnits="userSpaceOnUse">
<stop stop-color="#3B3D93"/>
<stop offset="1" stop-color="#CD76EF"/>
</linearGradient>
<linearGradient id="paint5_linear" x1="7.63242" y1="9.65128" x2="49.5221" y2="137.223" gradientUnits="userSpaceOnUse">
<stop stop-color="#3B3D93"/>
<stop offset="1" stop-color="#CD76EF"/>
</linearGradient>
<linearGradient id="paint6_linear" x1="7.63242" y1="9.65128" x2="49.5221" y2="137.223" gradientUnits="userSpaceOnUse">
<stop stop-color="#3B3D93"/>
<stop offset="1" stop-color="#CD76EF"/>
</linearGradient>
<linearGradient id="paint7_linear" x1="7.63242" y1="9.65128" x2="49.5221" y2="137.223" gradientUnits="userSpaceOnUse">
<stop stop-color="#3B3D93"/>
<stop offset="1" stop-color="#CD76EF"/>
</linearGradient>
<linearGradient id="paint8_linear" x1="7.63242" y1="9.65128" x2="49.5221" y2="137.223" gradientUnits="userSpaceOnUse">
<stop stop-color="#3B3D93"/>
<stop offset="1" stop-color="#CD76EF"/>
</linearGradient>
<linearGradient id="paint9_linear" x1="7.63242" y1="9.65128" x2="49.5221" y2="137.223" gradientUnits="userSpaceOnUse">
<stop stop-color="#3B3D93"/>
<stop offset="1" stop-color="#CD76EF"/>
</linearGradient>
<linearGradient id="paint10_linear" x1="7.63242" y1="9.65128" x2="49.5221" y2="137.223" gradientUnits="userSpaceOnUse">
<stop stop-color="#3B3D93"/>
<stop offset="1" stop-color="#CD76EF"/>
</linearGradient>
<linearGradient id="paint11_linear" x1="7.63242" y1="9.65128" x2="49.5221" y2="137.223" gradientUnits="userSpaceOnUse">
<stop stop-color="#3B3D93"/>
<stop offset="1" stop-color="#CD76EF"/>
</linearGradient>
<linearGradient id="paint12_linear" x1="7.63242" y1="9.65128" x2="49.5221" y2="137.223" gradientUnits="userSpaceOnUse">
<stop stop-color="#3B3D93"/>
<stop offset="1" stop-color="#CD76EF"/>
</linearGradient>
</defs>
</svg>
